# xmcd
#
# Track frame offsets: 
#        183
#        14575
#        27750
#        42285
#        55618
#        70283
#        88433
#        98643
#        122048
#        138513
#        159375
#
# Disc length: 2406 seconds
#
# Revision: 17
# Processed by: cddbd v1.5.2PL0 Copyright (c) Steve Scherf et al.
# Submitted via: ExactAudioCopy v1.3
#
DISCID=9009640b
DTITLE=John Denver - Greatest Hits (1973)
DYEAR=1973
DGENRE=Country
TTITLE0=Take Me Home, Country Roads
TTITLE1=Follow Me
TTITLE2=Starwood In Aspen
TTITLE3=For Baby (For Bobbie)
TTITLE4=Rhymes And Reasons
TTITLE5=Leaving, On A Jet Plane
TTITLE6=The Eagle And The Hawk
TTITLE7=Sunshine On My Shoulders
TTITLE8=Goodbye Again
TTITLE9=Poems, Prayers And Promises
TTITLE10=Rocky Mountain High
EXTD=
EXTT0=
EXTT1=
EXTT2=
EXTT3=
EXTT4=
EXTT5=
EXTT6=
EXTT7=
EXTT8=
EXTT9=
EXTT10=
PLAYORDER=
